<?xml version="1.0" encoding="UTF-8"?><svg id="Ebene_1" xmlns="http://www.w3.org/2000/svg" width="80.8mm" height="95.71mm" viewBox="0 0 229.05 271.3"><defs><style>.cls-1{fill:#fff;}</style></defs><polygon class="cls-1" points="50.76 198.22 28.29 197.67 40.79 117.81 86.89 118.88 50.76 198.22"/><circle class="cls-1" cx="70.97" cy="68.69" r="23.36"/><path class="cls-1" d="m206.88,53.68c-12.32-23.64-33.11-41.06-58.53-49.06C138.17,1.42,127.73-.09,117.36,0v32.97c.32,0,.64-.03.96-.03,6.74,0,13.52,1.03,20.13,3.11,17.03,5.36,30.95,17.02,39.2,32.85,8.25,15.83,9.84,33.92,4.49,50.95h0c-5.36,17.03-17.02,30.95-32.85,39.2-10.02,5.22-20.94,7.76-31.93,7.58h0s-22.13,0-22.13,0l-15.92,32.99h38.82c.13,0,.7,0,.86,0h.04c15.67-.08,31.2-3.89,45.5-11.34,23.63-12.32,41.06-33.11,49.05-58.54,8-25.43,5.62-52.44-6.71-76.08Z"/><path class="cls-1" d="m202.68,238.24c2.27,0,4.11-1.84,4.11-4.11s-1.84-4.11-4.11-4.11-4.11,1.84-4.11,4.11,1.84,4.11,4.11,4.11Z"/><path class="cls-1" d="m27.17,240.14c-2.62-5.03-7.05-8.74-12.47-10.45-2.17-.68-4.39-1-6.6-.98v7.02c.07,0,.14,0,.2,0,1.44,0,2.88.22,4.29.66,3.63,1.14,6.59,3.63,8.35,7,1.76,3.37,2.1,7.22.96,10.85h0c-1.14,3.63-3.62,6.59-7,8.35-2.13,1.11-4.46,1.65-6.8,1.61h0s-4.71,0-4.71,0l-3.39,7.03h8.27s.15,0,.18,0h0c3.34-.02,6.65-.83,9.69-2.41,5.03-2.62,8.74-7.05,10.45-12.47,1.7-5.41,1.2-11.17-1.43-16.2Z"/><path class="cls-1" d="m55.31,242.97c-2.19-1.19-4.68-1.79-7.45-1.79s-5.42.61-7.64,1.84c-2.21,1.23-3.93,2.98-5.16,5.27-1.23,2.28-1.84,4.93-1.84,7.95s.62,5.62,1.87,7.9c1.25,2.28,2.98,4.05,5.21,5.29,2.23,1.25,4.75,1.87,7.56,1.87,3.48,0,6.41-.9,8.79-2.71,2.39-1.81,4-4.12,4.84-6.92h-7.95c-1.16,2.35-3.11,3.53-5.84,3.53-1.9,0-3.49-.6-4.79-1.79-1.3-1.19-2.04-2.84-2.21-4.95h21.32c.14-.84.21-1.79.21-2.84,0-2.84-.61-5.36-1.82-7.56-1.21-2.19-2.91-3.89-5.11-5.08Zm-14.56,10.53c.28-1.97,1.04-3.5,2.29-4.61,1.25-1.11,2.78-1.66,4.61-1.66,1.93,0,3.56.57,4.9,1.71,1.33,1.14,2.02,2.66,2.05,4.55h-13.85Z"/><path class="cls-1" d="m83.63,241.23c-1.83,0-3.5.36-5.03,1.08-1.53.72-2.78,1.71-3.77,2.98v-3.63h-7.37v29.17h7.37v-16.11c0-2.32.59-4.1,1.76-5.34,1.18-1.25,2.78-1.87,4.82-1.87s3.58.62,4.74,1.87c1.16,1.25,1.74,3.03,1.74,5.34v16.11h7.37v-17.11c0-3.93-1.07-6.99-3.21-9.19-2.14-2.19-4.95-3.29-8.43-3.29Z"/><path class="cls-1" d="m172.93,261.4l-11.69-27.33h-8.37v30.54h-8.74c-1.12,0-1.92-.22-2.4-.66-.47-.44-.71-1.15-.71-2.13v-14.11h6.53v-6.05h-6.53v-7.21h-7.42v7.21h-14.74l-9.79,12.37v-22.17h-7.37v38.96h7.37v-12.43l9.9,12.43h9.58l-12.95-14.53,7.53-8.58h10.47v14.06c0,6.04,3.11,9.06,9.32,9.06h17.32v-23.91l9.9,23.91h5.58l9.85-23.91v23.91h7.37v-36.75h-8.32l-11.69,27.33Z"/><path class="cls-1" d="m229.05,247.71v-6.05h-6.53v-7.21h-7.43v7.18h-6.83c-.06,0-.1,0-.16.01h-9.16v10.23h0v18.86h7.42v-20.1s0-.06,0-.09v-2.69h3.07s.02,0,.03,0h5.62v13.94c0,6.04,3.11,9.06,9.32,9.06h4.63v-6.21h-3.42c-1.12,0-1.92-.22-2.4-.66-.47-.44-.71-1.15-.71-2.13v-14.11h6.53Z"/></svg>