<?xml version="1.0" encoding="UTF-8"?><svg id="Ebene_1" xmlns="http://www.w3.org/2000/svg" width="67.01mm" height="70.43mm" viewBox="0 0 189.94 199.64"><defs><style>.cls-1{fill:#3764ad;}</style></defs><polygon class="cls-1" points="22.47 198.22 0 197.67 12.5 117.81 58.6 118.88 22.47 198.22"/><circle class="cls-1" cx="42.68" cy="68.69" r="23.36"/><path class="cls-1" d="m178.59,53.68c-12.32-23.64-33.11-41.06-58.53-49.06C109.88,1.42,99.44-.09,89.07,0v32.97c.32,0,.64-.03.96-.03,6.74,0,13.52,1.03,20.13,3.11,17.03,5.36,30.95,17.02,39.2,32.85,8.25,15.83,9.84,33.92,4.49,50.95h0c-5.36,17.03-17.02,30.95-32.85,39.2-10.02,5.22-20.94,7.76-31.93,7.58h0s-22.13,0-22.13,0l-15.92,32.99h38.82c.13,0,.7,0,.86,0h.04c15.67-.08,31.2-3.89,45.5-11.34,23.63-12.32,41.06-33.11,49.05-58.54,8-25.43,5.62-52.44-6.71-76.08Z"/></svg>